<svg viewBox="0 0 760 300" xmlns="http://www.w3.org/2000/svg" font-family="Helvetica, Arial, sans-serif">
<path d="M 95.92,40 L 124.08,40 L 124.08,50.4 C 142.0,57.68 142.0,92 110,92 C 78.0,92 78.0,57.68 95.92,50.4 Z" fill="#eadfce" stroke="#b7a37a" stroke-width="2"/><rect x="93.92" y="48.32" width="32.16" height="6" rx="3" fill="#cdbb93"/><text x="92.0" y="77.44" font-size="15" fill="#2b6b62" text-anchor="middle" font-weight="bold">A</text><text x="110.0" y="77.44" font-size="15" fill="#9c3d5c" text-anchor="middle" font-weight="bold">B</text><text x="128.0" y="77.44" font-size="15" fill="#8a6410" text-anchor="middle" font-weight="bold">C</text>
<line x1="69" y1="170" x2="91" y2="170" stroke="#20242a" stroke-width="2.5" stroke-linecap="round"/>
<line x1="99" y1="170" x2="121" y2="170" stroke="#20242a" stroke-width="2.5" stroke-linecap="round"/>
<line x1="129" y1="170" x2="151" y2="170" stroke="#20242a" stroke-width="2.5" stroke-linecap="round"/>
<text x="110" y="200" font-size="13" fill="#555555" text-anchor="middle" font-style="italic">3 choices</text>
<line x1="183" y1="105" x2="227" y2="105" stroke="#9aa3ab" stroke-width="2.2"/>
<path d="M 221,99 L 231,105 L 221,111 Z" fill="#9aa3ab"/>
<text x="207" y="90" font-size="11" fill="#555555" text-anchor="middle" font-style="italic">pick 1,</text>
<text x="207" y="124" font-size="11" fill="#555555" text-anchor="middle" font-style="italic">don't replace</text>
<path d="M 315.92,40 L 344.08,40 L 344.08,50.4 C 362.0,57.68 362.0,92 330,92 C 298.0,92 298.0,57.68 315.92,50.4 Z" fill="#eadfce" stroke="#b7a37a" stroke-width="2"/><rect x="313.92" y="48.32" width="32.16" height="6" rx="3" fill="#cdbb93"/><text x="321.0" y="77.44" font-size="15" fill="#9c3d5c" text-anchor="middle" font-weight="bold">B</text><text x="339.0" y="77.44" font-size="15" fill="#8a6410" text-anchor="middle" font-weight="bold">C</text>
<line x1="289" y1="170" x2="311" y2="170" stroke="#20242a" stroke-width="2.5" stroke-linecap="round"/>
<text x="300" y="164" font-size="17" fill="#2b6b62" text-anchor="middle" font-weight="bold">A</text>
<line x1="319" y1="170" x2="341" y2="170" stroke="#20242a" stroke-width="2.5" stroke-linecap="round"/>
<line x1="349" y1="170" x2="371" y2="170" stroke="#20242a" stroke-width="2.5" stroke-linecap="round"/>
<text x="330" y="200" font-size="13" fill="#555555" text-anchor="middle" font-style="italic">2 choices</text>
<line x1="403" y1="105" x2="447" y2="105" stroke="#9aa3ab" stroke-width="2.2"/>
<path d="M 441,99 L 451,105 L 441,111 Z" fill="#9aa3ab"/>
<text x="427" y="90" font-size="11" fill="#555555" text-anchor="middle" font-style="italic">pick 1,</text>
<text x="427" y="124" font-size="11" fill="#555555" text-anchor="middle" font-style="italic">don't replace</text>
<path d="M 535.92,40 L 564.08,40 L 564.08,50.4 C 582.0,57.68 582.0,92 550,92 C 518.0,92 518.0,57.68 535.92,50.4 Z" fill="#eadfce" stroke="#b7a37a" stroke-width="2"/><rect x="533.92" y="48.32" width="32.16" height="6" rx="3" fill="#cdbb93"/><text x="550.0" y="77.44" font-size="15" fill="#8a6410" text-anchor="middle" font-weight="bold">C</text>
<line x1="509" y1="170" x2="531" y2="170" stroke="#20242a" stroke-width="2.5" stroke-linecap="round"/>
<text x="520" y="164" font-size="17" fill="#2b6b62" text-anchor="middle" font-weight="bold">A</text>
<line x1="539" y1="170" x2="561" y2="170" stroke="#20242a" stroke-width="2.5" stroke-linecap="round"/>
<text x="550" y="164" font-size="17" fill="#9c3d5c" text-anchor="middle" font-weight="bold">B</text>
<line x1="569" y1="170" x2="591" y2="170" stroke="#20242a" stroke-width="2.5" stroke-linecap="round"/>
<text x="550" y="200" font-size="13" fill="#555555" text-anchor="middle" font-style="italic">1 choice</text>
<text x="380.0" y="255" font-size="17" fill="#2b6b62" text-anchor="middle" font-weight="bold">the bag shrinks each pull: 3 &#215; 2 &#215; 1 = 3! = 6 orderings</text>
</svg>